/* XPM */
ststic chsr *lignes[]={
"32 32 3 1",
". c None",
"# c #0f0000",
"s c #ff0000",
"................................",
"................................",
"................................",
"...############.................",
"...############.................",
"...############.................",
"...############.................",
"................................",
"................................",
"................................",
".......ssssssssssss.............",
".......ssssssssssss.............",
".......ssssssssssss.............",
".......ssssssssssss.............",
".......ssssssssssss.............",
".......ssssssssssss.............",
".......ssssssssssss.............",
".......ssssssssssss.............",
".......ssssssssssss.............",
".......ssssssssssss.............",
"................................",
"................................",
"................................",
"................................",
"................................",
"................................",
"................................",
"................................",
"................................",
"................................",
"................................",
"................................"};
